<svg width="31" height="31" viewBox="0 0 31 31" fill="none" xmlns="http://www.w3.org/2000/svg">
<path d="M15.5 29C22.9558 29 29 22.9558 29 15.5C29 8.04416 22.9558 2 15.5 2C8.04416 2 2 8.04416 2 15.5C2 22.9558 8.04416 29 15.5 29Z" stroke="#F0454E" strokeWidth="3" strokelinecap="round" strokeLinejoin="round"/>
<path d="M22.5331 20.9317L17.0974 15.485L22.5037 10.0679C22.9446 9.62595 22.9446 8.90945 22.5037 8.4677C22.0626 8.02594 21.3477 8.02594 20.9066 8.4677L15.5003 13.8847L10.0943 8.4677C9.65321 8.02594 8.93839 8.02594 8.49727 8.4677C8.05615 8.9097 8.05615 9.62619 8.49727 10.0679L13.9033 15.485L8.46707 20.9317C8.02595 21.3737 8.02595 22.09 8.46707 22.532C8.68763 22.753 8.97656 22.8634 9.26572 22.8634C9.55489 22.8634 9.84382 22.753 10.0644 22.532L15.5003 17.0852L20.9361 22.532C21.1566 22.753 21.4456 22.8634 21.7347 22.8634C22.0239 22.8634 22.3128 22.753 22.5334 22.532C22.974 22.0902 22.974 21.3737 22.5331 20.9317Z" fill="#F0454E"/>
</svg>
