<svg width="28" height="27" viewBox="0 0 28 27" fill="none" xmlns="http://www.w3.org/2000/svg">
<g clip-path="url(#clip0_203_71)">
<path d="M26.769 24.6886L21.0873 18.9725C20.808 18.6925 20.4298 18.5353 20.0355 18.5353C19.6412 18.5353 19.2629 18.6925 18.9836 18.9725C17.4865 20.4289 15.5514 21.3445 13.4816 21.5758C11.4118 21.8072 9.3242 21.3413 7.54582 20.2511C5.76743 19.1608 4.39875 17.5079 3.65419 15.5512C2.90962 13.5946 2.83125 11.4447 3.43134 9.43838C4.03143 7.43208 5.27608 5.68273 6.97031 4.46437C8.66453 3.24602 10.7126 2.62749 12.7937 2.7057C14.8748 2.7839 16.8713 3.55441 18.4705 4.89653C20.0696 6.23865 21.1811 8.07654 21.6307 10.1223C21.953 11.6064 21.9198 13.1464 21.5339 14.6151C21.4883 14.7871 21.4769 14.9665 21.5002 15.1429C21.5235 15.3194 21.5812 15.4895 21.6699 15.6436C21.7586 15.7977 21.8765 15.9326 22.0171 16.0408C22.1576 16.149 22.3179 16.2283 22.4889 16.2741C22.8342 16.3667 23.202 16.3175 23.5112 16.1374C23.8205 15.9572 24.046 15.6608 24.138 15.3133C24.8793 12.5104 24.6038 9.5334 23.3609 6.9163C22.118 4.2992 19.989 2.21317 17.3558 1.0323C14.7225 -0.148571 11.7572 -0.347024 8.99173 0.472526C6.22621 1.29208 3.84135 3.07602 2.26484 5.50443C0.68833 7.93284 0.0232984 10.8469 0.389008 13.7239C0.754717 16.601 2.12724 19.2528 4.26045 21.204C6.39365 23.1551 9.14799 24.2778 12.0295 24.3708C14.911 24.4638 17.7312 23.521 19.9844 21.7115L24.8643 26.6157C24.9893 26.7417 25.1377 26.8417 25.3011 26.9099C25.4646 26.9781 25.6397 27.0132 25.8167 27.0132C25.9936 27.0132 26.1688 26.9781 26.3322 26.9099C26.4956 26.8417 26.644 26.7417 26.769 26.6157C26.8959 26.4898 26.9966 26.3398 27.0654 26.1744C27.1342 26.0089 27.1696 25.8314 27.1696 25.6522C27.1696 25.4729 27.1342 25.2954 27.0654 25.1299C26.9966 24.9645 26.8959 24.8145 26.769 24.6886Z" fill="#999999"/>
<path d="M16.4713 16.239C16.2564 16.0381 15.9812 15.9148 15.6891 15.8883C15.3969 15.8618 15.1043 15.9338 14.8572 16.0928C14.1596 16.5258 13.3595 16.7628 12.54 16.779C11.7205 16.7951 10.9117 16.59 10.1978 16.1848C9.95577 16.0428 9.67452 15.9834 9.39615 16.0156C9.11778 16.0478 8.85727 16.1698 8.65362 16.3635L8.57291 16.4393C8.42842 16.5777 8.31765 16.7479 8.24923 16.9365C8.18081 17.1252 8.15659 17.3271 8.17846 17.5267C8.20033 17.7263 8.26769 17.9181 8.37531 18.0872C8.48292 18.2563 8.62788 18.3981 8.79889 18.5016C9.94913 19.1688 11.2586 19.5073 12.5861 19.4806C13.9136 19.4539 15.2086 19.063 16.3314 18.35C16.4955 18.2452 16.634 18.1046 16.7367 17.9386C16.8395 17.7726 16.9038 17.5855 16.925 17.3911C16.9462 17.1967 16.9236 17.0001 16.8591 16.8156C16.7945 16.6312 16.6896 16.4637 16.552 16.3256L16.4713 16.239Z" fill="#83C5BE"/>
</g>
<defs>
<clipPath id="clip0_203_71">
<rect width="26.8319" height="27" fill="white" transform="translate(0.330078)"/>
</clipPath>
</defs>
</svg>
