<svg width="48" height="48" viewBox="0 0 48 48" fill="none" xmlns="http://www.w3.org/2000/svg">
<g clip-path="url(#clip0_327_9)">
<path d="M23.9999 0C10.7454 0 0 10.7451 0 23.9996C0 37.2555 10.7454 48 23.9999 48C37.2549 48 48 37.2555 48 23.9996C48 10.7451 37.2549 0 23.9999 0Z" fill="#1ED760"/>
<path d="M34.4791 34.0945C34.0543 34.7911 33.1473 35.0093 32.4532 34.5848C26.9024 31.1922 19.9157 30.4261 11.6875 32.3055C10.8946 32.4872 10.1042 31.9904 9.92357 31.1978C9.74179 30.4049 10.2369 29.6146 11.0315 29.4336C20.0359 27.3753 27.7596 28.2611 33.9902 32.0683C34.6849 32.4926 34.9036 33.4001 34.4791 34.0945Z" fill="white"/>
<path d="M37.3714 27.658C36.8368 28.5254 35.7026 28.7975 34.8363 28.2649C28.4841 24.3602 18.7972 23.2289 11.2818 25.5102C10.3074 25.8046 9.27796 25.2553 8.98186 24.2823C8.6883 23.3079 9.23788 22.2804 10.2108 21.9841C18.7961 19.3787 29.469 20.6405 36.7651 25.1243C37.6314 25.6578 37.9041 26.7925 37.3714 27.658Z" fill="white"/>
<path d="M37.621 20.9557C30.0014 16.4306 17.4331 16.0145 10.1593 18.2222C8.99097 18.5767 7.75576 17.9173 7.40208 16.7493C7.04811 15.5804 7.70665 14.346 8.87553 13.991C17.2256 11.4565 31.106 11.9459 39.8778 17.1529C40.9287 17.7768 41.273 19.1336 40.6503 20.1825C40.0271 21.2332 38.6691 21.5795 37.621 20.9557Z" fill="white"/>
</g>
<defs>
<clipPath id="clip0_327_9">
<rect width="48" height="48" fill="white"/>
</clipPath>
</defs>
</svg>
